<svg version="1.0" xmlns="http://www.w3.org/2000/svg"
 width="150.000000pt" height="175.000000pt" viewBox="0 0 150.000000 175.000000"
 preserveAspectRatio="xMidYMid meet">
<g transform="translate(0.000000,175.000000) scale(0.100000,-0.100000)"
fill="#000000" stroke="none">
<path d="M480 1684 c-48 -41 -63 -79 -57 -142 3 -29 13 -65 22 -79 16 -24 16
-27 -8 -72 -48 -91 -136 -387 -137 -462 0 -14 7 -34 15 -45 13 -18 15 -18 45
-1 18 9 36 17 41 17 5 0 9 -8 9 -17 0 -10 12 -45 26 -78 42 -99 46 -91 -43
-100 -88 -8 -154 -25 -155 -40 -1 -62 784 -81 995 -24 73 19 34 49 -83 63 -25
3 -66 8 -93 11 l-47 6 24 42 c13 23 32 68 42 99 l17 57 29 -25 c33 -27 48 -30
66 -12 29 29 2 216 -61 426 l-32 107 23 45 c45 86 14 188 -68 230 -53 27 -59
25 -28 -7 50 -52 63 -132 30 -173 l-18 -23 -50 27 c-27 14 -55 26 -61 26 -7 0
-13 9 -13 20 0 11 -7 23 -15 26 -8 4 -15 16 -15 27 0 20 0 20 -14 2 -13 -18
-15 -17 -25 22 -6 22 -18 46 -25 52 -12 10 -13 9 -9 -7 6 -26 -23 -82 -43 -82
-11 0 -14 6 -10 16 5 12 1 14 -17 9 -35 -11 -69 -36 -74 -54 -2 -9 -32 -29
-66 -44 -60 -27 -62 -27 -80 -9 -37 38 -42 119 -9 170 19 29 11 28 -28 -4z
m441 -290 c18 -19 24 -37 24 -69 0 -136 -243 -201 -343 -92 -21 23 -35 88 -21
100 2 3 32 7 67 11 l62 7 0 -31 c0 -40 39 -80 78 -80 41 0 82 35 82 69 0 25
-3 28 -27 23 -18 -3 -30 1 -40 13 -12 17 -8 21 35 46 26 15 50 27 53 28 3 1
16 -11 30 -25z m-183 -297 c3 -13 -2 -18 -15 -17 -36 4 -43 0 -43 -30 0 -48
-31 -33 -45 22 -8 32 8 43 62 43 28 0 39 -5 41 -18z m105 12 c43 1 47 0 47
-23 0 -13 -9 -34 -20 -47 l-19 -24 -1 27 c0 32 -22 46 -67 43 -27 -2 -33 1
-33 17 0 16 4 18 23 12 12 -4 43 -6 70 -5z m-37 -274 c29 -19 53 -53 56 -83 3
-22 1 -23 -120 -25 l-122 -2 0 25 c1 88 108 137 186 85z"/>
<path d="M40 400 l0 -140 75 0 c84 0 118 12 134 47 15 33 14 54 -4 81 -12 16
-13 26 -5 42 15 27 3 66 -27 90 -20 16 -41 20 -99 20 l-74 0 0 -140z m135 55
c0 -15 -8 -21 -32 -23 -30 -3 -33 -1 -33 23 0 24 3 26 33 23 24 -2 32 -8 32
-23z m10 -110 c0 -16 -8 -21 -37 -23 -35 -3 -38 -1 -38 23 0 24 3 26 38 23 29
-2 37 -7 37 -23z"/>
<path d="M320 401 l0 -141 35 0 c34 0 35 1 35 41 0 36 2 40 23 37 13 -2 30
-17 42 -40 18 -34 24 -38 58 -38 20 0 37 3 37 8 0 4 -11 25 -24 46 l-23 39 20
34 c24 41 18 96 -13 127 -17 17 -36 22 -105 25 l-85 3 0 -141z m148 51 c5 -32
-15 -52 -49 -52 -27 0 -29 3 -29 41 l0 40 38 -3 c30 -2 38 -7 40 -26z"/>
<path d="M646 413 c-32 -70 -61 -133 -63 -140 -9 -23 60 -16 75 7 10 16 23 20
66 20 46 0 56 -3 61 -20 5 -15 15 -20 41 -20 19 0 34 3 34 7 0 3 -28 66 -62
140 -41 89 -67 133 -78 133 -10 0 -35 -42 -74 -127z m93 -19 c13 -30 7 -44
-19 -44 -10 0 -21 4 -25 9 -6 11 14 61 25 61 4 0 12 -12 19 -26z"/>
<path d="M900 400 l0 -140 35 0 35 0 0 59 c0 33 3 62 8 65 4 2 38 -25 75 -60
37 -35 72 -64 77 -64 6 0 10 58 10 140 l0 140 -35 0 -34 0 -3 -67 -3 -68 -71
68 c-39 37 -76 67 -82 67 -9 0 -12 -40 -12 -140z"/>
<path d="M1220 399 l0 -142 78 5 c89 5 116 19 143 70 24 47 24 94 1 137 -27
50 -73 71 -154 71 l-68 0 0 -141z m147 59 c33 -31 32 -90 -3 -117 -15 -12 -37
-21 -50 -21 -23 0 -24 3 -24 80 l0 80 27 0 c15 0 37 -10 50 -22z"/>
<path d="M290 195 c-15 -18 -1 -40 31 -50 11 -4 17 -11 14 -16 -4 -5 -14 -5
-25 1 -23 13 -30 13 -30 0 0 -18 39 -31 60 -20 27 15 25 38 -5 52 -33 15 -32
30 3 23 26 -6 26 -6 8 9 -25 20 -40 20 -56 1z"/>
<path d="M633 203 c-19 -7 -16 -80 3 -91 39 -22 73 14 58 61 -10 33 -30 43
-61 30z m38 -20 c0 -5 2 -15 4 -24 4 -22 -10 -43 -24 -35 -12 8 -15 49 -4 59
9 9 23 9 24 0z"/>
<path d="M808 199 c-12 -6 -18 -22 -18 -44 0 -40 23 -57 58 -44 28 11 30 49 2
49 -11 0 -20 -4 -20 -10 0 -5 5 -10 11 -10 5 0 8 -4 4 -10 -10 -16 -35 1 -35
25 0 30 16 41 36 24 19 -16 30 -4 14 16 -14 17 -28 19 -52 4z"/>
<path d="M460 155 c0 -44 0 -45 33 -44 23 1 26 3 10 6 -19 4 -23 11 -23 44 0
21 -4 39 -10 39 -5 0 -10 -20 -10 -45z"/>
<path d="M976 160 c-9 -22 -16 -41 -16 -43 0 -1 20 -2 44 -2 l43 0 -14 43
c-19 53 -36 53 -57 2z m31 -12 c-3 -8 -6 -5 -6 6 -1 11 2 17 5 13 3 -3 4 -12
1 -19z"/>
<path d="M1140 155 c0 -25 5 -45 10 -45 6 0 10 9 10 20 0 11 3 20 8 20 4 0 13
-9 20 -20 20 -32 32 -23 32 25 0 25 -4 45 -10 45 -5 0 -10 -10 -10 -22 l-1
-23 -18 23 c-29 34 -41 27 -41 -23z"/>
</g>
</svg>
